<svg xmlns="http://www.w3.org/2000/svg" xmlns:xlink="http://www.w3.org/1999/xlink" width="49" height="43" viewBox="0 0 49 43">
  <defs>
    <clipPath id="clip-path">
      <rect id="Rectangle_4877" data-name="Rectangle 4877" width="44.322" height="39.907" fill="none"/>
    </clipPath>
  </defs>
  <g id="Group_19649" data-name="Group 19649" transform="translate(-16 -613)">
    <rect id="Rectangle_4870" data-name="Rectangle 4870" width="49" height="43" transform="translate(16 613)" fill="#fff" opacity="0"/>
    <g id="Group_14613" data-name="Group 14613" transform="translate(18 615)">
      <g id="Group_14612" data-name="Group 14612" transform="translate(0 0)" clip-path="url(#clip-path)">
        <path id="Path_15364" data-name="Path 15364" d="M32.75,6.044V2.6C32.747.465,31.1-.609,29.217.357c-1.951,1-3.867,2.074-5.775,3.157A54.483,54.483,0,0,1,11.864,8.925a28.067,28.067,0,0,1-3.255.385,21.551,21.551,0,0,0-3.18.086A6.331,6.331,0,0,0,.522,13.248a6.922,6.922,0,0,0-.5,3.235,6.488,6.488,0,0,0,6.443,5.777c1.675.021,5.216.31,5.48.37a34.555,34.555,0,0,1,9.766,4.056c2.585,1.516,5.112,3.13,7.652,4.722a1.882,1.882,0,0,0,1.814.184,2.249,2.249,0,0,0,1.569-2.347q.007-6.7,0-13.395,0-4.9,0-9.808" transform="translate(0 0)"/>
        <path id="Path_15365" data-name="Path 15365" d="M17.592,48.467c-.046-.324-.052-.6-.5-.589-1.223.02-2.448.007-3.754.007a4.725,4.725,0,0,0,0,.505,16.389,16.389,0,0,0,3.207,8.336A17.881,17.881,0,0,0,19,59.145c.637.546,1.257.272,1.47-.553.088-.342.11-.7.225-1.035a2.966,2.966,0,0,0-.792-3.343,10.146,10.146,0,0,1-2.315-5.747" transform="translate(-5.674 -20.383)" fill="#fffe37"/>
        <path id="Path_15366" data-name="Path 15366" d="M19.013,59.652a1.836,1.836,0,0,1-1.207-.491,18.477,18.477,0,0,1-2.576-2.54,17.17,17.17,0,0,1-3.386-8.762,2.707,2.707,0,0,1-.012-.421l0-1.053,1.98,0c.894,0,1.758.005,2.621-.009A1.269,1.269,0,0,1,17.8,47.652l-.845.176.853-.121a9.38,9.38,0,0,0,2.09,5.277,3.834,3.834,0,0,1,.979,4.215,3.224,3.224,0,0,0-.1.467c-.029.168-.059.336-.1.5a1.891,1.891,0,0,1-1.2,1.413,1.555,1.555,0,0,1-.462.07m-5.4-11.542a15.229,15.229,0,0,0,2.966,7.445,17.1,17.1,0,0,0,2.344,2.3l.029.024A.922.922,0,0,0,19,57.738c.03-.119.051-.242.072-.365a4.629,4.629,0,0,1,.172-.736,2.116,2.116,0,0,0-.605-2.472,10.925,10.925,0,0,1-2.518-6.06c-.765.009-1.528.007-2.314,0Z" transform="translate(-5.036 -19.744)"/>
        <path id="Path_15367" data-name="Path 15367" d="M34.325,10.847q0-1.722,0-3.444c0-2.134-1.648-3.208-3.532-2.242-1.952,1-3.867,2.074-5.775,3.157A54.5,54.5,0,0,1,13.44,13.728a28.064,28.064,0,0,1-3.256.385A21.542,21.542,0,0,0,7,14.2,6.332,6.332,0,0,0,2.1,18.051a6.929,6.929,0,0,0-.5,3.235,6.488,6.488,0,0,0,6.443,5.777c1.675.021,5.216.31,5.48.37a34.559,34.559,0,0,1,9.766,4.056c2.585,1.516,5.112,3.13,7.652,4.722a1.882,1.882,0,0,0,1.814.184,2.249,2.249,0,0,0,1.569-2.347q.007-6.7,0-13.395,0-4.9,0-9.808" transform="translate(-0.671 -2.045)" fill="#fffe37"/>
        <path id="Path_15368" data-name="Path 15368" d="M31.373,36.773a2.845,2.845,0,0,1-1.529-.469l-1.42-.891c-2.024-1.274-4.118-2.591-6.21-3.817a33.629,33.629,0,0,0-9.523-3.96c-.333-.056-3.711-.329-5.3-.349A7.349,7.349,0,0,1,.1,20.719a7.739,7.739,0,0,1,.562-3.636A7.22,7.22,0,0,1,6.229,12.71a13.632,13.632,0,0,1,2.427-.1c.294,0,.587.009.88.007a27.623,27.623,0,0,0,3.065-.361A54.016,54.016,0,0,0,23.954,6.93c1.741-.987,3.767-2.128,5.808-3.173a3.3,3.3,0,0,1,3.277-.033,3.426,3.426,0,0,1,1.509,3.041V24q0,4.706,0,9.414a3.1,3.1,0,0,1-2.112,3.146,2.861,2.861,0,0,1-1.062.213M7.917,14.321a8.928,8.928,0,0,0-1.414.091,5.438,5.438,0,0,0-4.248,3.333,6.041,6.041,0,0,0-.435,2.834,5.613,5.613,0,0,0,5.6,4.986c1.588.02,5.262.3,5.662.392a35.327,35.327,0,0,1,10.01,4.153c2.114,1.24,4.22,2.564,6.256,3.845l1.418.89a1.026,1.026,0,0,0,1.038.115,1.412,1.412,0,0,0,1.026-1.548q.005-4.707,0-9.412V6.765a1.766,1.766,0,0,0-.683-1.571,1.623,1.623,0,0,0-1.594.1c-2.01,1.03-4.018,2.16-5.743,3.139a55.244,55.244,0,0,1-11.763,5.489,26.976,26.976,0,0,1-3.488.419c-.308,0-.617,0-.927-.007-.241,0-.478-.009-.71-.009" transform="translate(-0.032 -1.407)"/>
        <line id="Line_240" data-name="Line 240" y1="3.596" x2="6.833" transform="translate(36.665 10.018)" fill="#fffe37"/>
        <rect id="Rectangle_4873" data-name="Rectangle 4873" width="7.721" height="1.723" transform="translate(36.265 12.852) rotate(-27.761)"/>
        <line id="Line_241" data-name="Line 241" x2="7.374" y2="2.288" transform="translate(36.395 22.176)" fill="#fffe37"/>
        <rect id="Rectangle_4874" data-name="Rectangle 4874" width="1.723" height="7.722" transform="translate(36.139 22.999) rotate(-72.759)"/>
        <line id="Line_242" data-name="Line 242" x2="7.656" transform="translate(36.665 17.78)" fill="#fffe37"/>
        <rect id="Rectangle_4875" data-name="Rectangle 4875" width="7.656" height="1.723" transform="translate(36.666 16.919)"/>
        <line id="Line_243" data-name="Line 243" y2="13.574" transform="translate(11.448 11.816)" fill="#fffe37"/>
        <rect id="Rectangle_4876" data-name="Rectangle 4876" width="1.723" height="13.574" transform="translate(10.586 11.816)"/>
        <path id="Path_15369" data-name="Path 15369" d="M40.452,27.387a5.723,5.723,0,1,1-5.723-5.723,5.723,5.723,0,0,1,5.723,5.723" transform="translate(-12.349 -9.223)" fill="#fffe37"/>
        <path id="Path_15370" data-name="Path 15370" d="M34.09,33.333a6.585,6.585,0,1,1,6.585-6.585,6.592,6.592,0,0,1-6.585,6.585m0-11.446a4.862,4.862,0,1,0,4.862,4.862,4.867,4.867,0,0,0-4.862-4.862" transform="translate(-11.71 -8.584)"/>
        <path id="Path_15371" data-name="Path 15371" d="M33.64,29.9l2.233,2.233,3.89-3.89" transform="translate(-14.321 -12.024)" fill="#fffe37"/>
        <path id="Path_15372" data-name="Path 15372" d="M35.422,32.9l-2.843-2.842L33.8,28.839l1.625,1.624L38.7,27.183,39.921,28.4Z" transform="translate(-13.87 -11.572)"/>
      </g>
    </g>
  </g>
</svg>
