<svg xmlns="http://www.w3.org/2000/svg" xmlns:xlink="http://www.w3.org/1999/xlink" width="49" height="43" viewBox="0 0 49 43">
  <defs>
    <clipPath id="clip-path">
      <rect id="Rectangle_4880" data-name="Rectangle 4880" width="43.547" height="35.122" fill="none"/>
    </clipPath>
  </defs>
  <g id="Group_19648" data-name="Group 19648" transform="translate(-16 -613)">
    <rect id="Rectangle_4870" data-name="Rectangle 4870" width="49" height="43" transform="translate(16 613)" fill="#fff" opacity="0"/>
    <g id="Group_14616" data-name="Group 14616" transform="translate(18.726 616.938)">
      <g id="Group_14615" data-name="Group 14615" transform="translate(0 0.001)" clip-path="url(#clip-path)">
        <path id="Path_15373" data-name="Path 15373" d="M45.962,0A13.352,13.352,0,1,0,59.305,13.344,13.344,13.344,0,0,0,45.962,0" transform="translate(-15.758 0)"/>
        <path id="Path_15374" data-name="Path 15374" d="M44.633,5.14A12.022,12.022,0,1,0,56.648,17.155,12.015,12.015,0,0,0,44.633,5.14" transform="translate(-15.758 -2.483)" fill="#fffe37"/>
        <path id="Path_15375" data-name="Path 15375" d="M43.908,29.221A12.79,12.79,0,1,1,56.7,16.43a12.781,12.781,0,0,1-12.79,12.79m0-24.03a11.246,11.246,0,1,0,11.24,11.24,11.253,11.253,0,0,0-11.24-11.24" transform="translate(-15.033 -1.759)"/>
        <path id="Path_15376" data-name="Path 15376" d="M53.1,18.035a6.323,6.323,0,0,1,1.477.184,3.421,3.421,0,0,1,1.345.647l-1.266,1.543a1.963,1.963,0,0,0-.726-.4,3.6,3.6,0,0,0-.831-.151v2.1l1.266.37a2.908,2.908,0,0,1,1.391.863,2.244,2.244,0,0,1,.521,1.524,2.829,2.829,0,0,1-.25,1.227,2.663,2.663,0,0,1-.686.9,3.284,3.284,0,0,1-1.016.58,5.113,5.113,0,0,1-1.227.277v.923h-.87v-.923a6.5,6.5,0,0,1-1.735-.238,3.716,3.716,0,0,1-1.523-.831l1.4-1.569a1.9,1.9,0,0,0,.831.6,3.821,3.821,0,0,0,1.029.218V23.64l-.963-.29a3.383,3.383,0,0,1-1.523-.891,2.254,2.254,0,0,1-.521-1.576,2.474,2.474,0,0,1,.251-1.121,2.719,2.719,0,0,1,.666-.858,3.514,3.514,0,0,1,.963-.58,4.2,4.2,0,0,1,1.128-.29v-.924h.87Zm-.87,1.859a1.832,1.832,0,0,0-.66.277.7.7,0,0,0-.29.62.824.824,0,0,0,.118.475.955.955,0,0,0,.277.27,1.1,1.1,0,0,0,.316.139c.106.026.185.048.238.066Zm.87,5.948a2.884,2.884,0,0,0,.4-.112,1.345,1.345,0,0,0,.363-.191.981.981,0,0,0,.257-.283.746.746,0,0,0,.1-.389.8.8,0,0,0-.072-.356.756.756,0,0,0-.191-.244,1.244,1.244,0,0,0-.277-.172c-.106-.048-.216-.094-.33-.138l-.251-.093Z" transform="translate(-23.659 -8.267)"/>
        <path id="Path_15377" data-name="Path 15377" d="M46.8,50.159c1.02.775,5.175-1.245,5.175-1.245v2.614s-1.513,1.425-1.965,1.812a5.481,5.481,0,0,1-2,.547l-5.25-1.1-4.518-1.167L37.011,49.7" transform="translate(-17.88 -23.631)" fill="#fffe37"/>
        <path id="Path_15378" data-name="Path 15378" d="M47.359,53.515l-5.368-1.12-4.848-1.252L35.748,48.96l1.306-.835,1.066,1.668,4.222,1.091,5.092,1.062a4.818,4.818,0,0,0,1.462-.357c.32-.275,1.244-1.137,1.688-1.553V48.963c-1.7.727-3.886,1.4-4.869.655l.938-1.235c-.01-.008-.018-.011-.018-.011.445.212,2.536-.415,4.384-1.313l1.114-.541v4.187l-.244.229c-.063.059-1.532,1.442-1.992,1.836a5.317,5.317,0,0,1-2.422.73Z" transform="translate(-17.27 -22.474)"/>
        <rect id="Rectangle_4878" data-name="Rectangle 4878" width="6.136" height="10.194" transform="translate(0.775 22.897)" fill="#fffe37"/>
        <path id="Path_15379" data-name="Path 15379" d="M7.687,54.542H0V42.8H7.687ZM1.551,52.992H6.136V44.348H1.551Z" transform="translate(0 -20.676)"/>
        <path id="Path_15380" data-name="Path 15380" d="M23.092,44.894l4.3-.918a7.837,7.837,0,0,1,4.445,0c1.325.544,5.782,1.8,8.31,2.5a1.632,1.632,0,0,1-.819,3.16l-7.249-1.751-.1.435,7.952,2.253a1.092,1.092,0,0,0,.785-.074A3.761,3.761,0,0,0,42.756,47.7l7.156-3.832a1.846,1.846,0,0,1,1.836,3.2L40.921,53.7a4.64,4.64,0,0,1-1.67.621L36.91,54.7H27.36a3.9,3.9,0,0,1-1.768-.423L23.479,53.2Z" transform="translate(-11.156 -21.079)" fill="#fffe37"/>
        <path id="Path_15381" data-name="Path 15381" d="M36.22,54.754H26.607a4.7,4.7,0,0,1-2.119-.508l-2.517-1.279-.438-9.417L26.449,42.5a8.5,8.5,0,0,1,4.93.035c.939.386,3.936,1.288,8.222,2.475a2.4,2.4,0,0,1,1.666,1.64l.027-.177,7.5-4.015A2.622,2.622,0,0,1,51.4,47L40.573,53.634a5.373,5.373,0,0,1-1.95.725Zm-12.741-2.76,1.711.87a3.155,3.155,0,0,0,1.417.339h9.486l2.278-.375a3.815,3.815,0,0,0,1.391-.517L50.59,45.682a1.071,1.071,0,0,0-1.065-1.858l-6.833,3.659a4.543,4.543,0,0,1-2.381,2.99,1.866,1.866,0,0,1-1.342.126l-8.656-2.452.427-1.92,8.016,1.936a.857.857,0,0,0,.431-1.659c-3.117-.864-7.1-2-8.4-2.535a6.921,6.921,0,0,0-3.926.024l-.062.017-3.657.781Z" transform="translate(-10.403 -20.356)"/>
        <rect id="Rectangle_4879" data-name="Rectangle 4879" width="5.749" height="12.9" transform="translate(6.573 21.447)" fill="#fffe37"/>
        <path id="Path_15382" data-name="Path 15382" d="M18.516,54.444h-7.3V39.994h7.3Zm-5.749-1.551h4.2V41.545h-4.2Z" transform="translate(-5.419 -19.322)"/>
      </g>
    </g>
  </g>
</svg>
