<svg xmlns="http://www.w3.org/2000/svg" width="28.751" height="27.595" viewBox="0 0 28.751 27.595">
  <g id="Group_19538" data-name="Group 19538" transform="translate(-95 -2022.79)">
    <path id="Path_17707" data-name="Path 17707" d="M15.86,105.695a1.769,1.769,0,0,1-.726-.173c-.886-.4-1.792-.792-2.668-1.173-1.209-.526-2.459-1.071-3.68-1.632a3.968,3.968,0,0,0-2.036-.423,8.721,8.721,0,0,1-.877.013c-.127,0-.258-.005-.392-.005H4.854V93.533H5.48c.424,0,.852.006,1.266.012.97.015,1.887.029,2.812-.031a5.7,5.7,0,0,1,3.79,1.048c.233.165.471.319.717.469l2.059-.208c.943-.1,1.832-.187,2.722-.274,1.692-.166,2.735-.2,3.741-.241.985-.036,2-.073,3.651-.234l.059-.006.142-.014a1.7,1.7,0,0,1,1.928.886,1.427,1.427,0,0,1-.794,1.78c-.041.027-.082.054-.121.08a49.858,49.858,0,0,0-5.307,4.258,51.738,51.738,0,0,1-5.393,4.331,1.556,1.556,0,0,1-.893.306" transform="translate(95.277 1944.69)"/>
    <path id="Path_17708" data-name="Path 17708" d="M18.531,85.074a3.528,3.528,0,0,0-1.68-1.05l-.735-.214v-.689a1.219,1.219,0,0,1,.371.223l.535.468,2.125-2.59-.548-.436a4.038,4.038,0,0,0-1.575-.759,7.245,7.245,0,0,0-.908-.16v-.937H13.893v1.013a4.712,4.712,0,0,0-.669.219,4.085,4.085,0,0,0-1.123.679,3.344,3.344,0,0,0-.816,1.048,3.1,3.1,0,0,0-.316,1.4,2.867,2.867,0,0,0,.685,1.995,3.994,3.994,0,0,0,1.793,1.061l.446.134V87.3l-.076-.026a1.151,1.151,0,0,1-.51-.37l-.51-.629-2.353,2.642.508.459a4.317,4.317,0,0,0,1.759.96,7.119,7.119,0,0,0,1.181.22v.932h2.223v-1a5.54,5.54,0,0,0,.739-.211,3.888,3.888,0,0,0,1.2-.686,3.265,3.265,0,0,0,.843-1.1,3.437,3.437,0,0,0,.311-1.487,2.854,2.854,0,0,0-.675-1.932" transform="translate(95.777 1943.858)"/>
    <path id="Path_17712" data-name="Path 17712" d="M5.185,101.643H0V90.951H5.185Zm-3.934-1.252H3.934V92.2H1.252Z" transform="translate(95 1946.544)"/>
  </g>
</svg>
