<svg xmlns="http://www.w3.org/2000/svg" width="33" height="31" viewBox="0 0 33 31">
  <g id="Group_5861" data-name="Group 5861" transform="translate(-49.375 -332.645)">
    <g id="Group_5860" data-name="Group 5860" transform="translate(49 333)">
      <g id="Rectangle_14575" data-name="Rectangle 14575" transform="translate(0.375 -0.355)" fill="#fff" stroke="#707070" stroke-width="1" opacity="0">
        <rect width="33" height="31" stroke="none"/>
        <rect x="0.5" y="0.5" width="32" height="30" fill="none"/>
      </g>
    </g>
    <g id="Group_19532" data-name="Group 19532" transform="translate(23.556 173.645)">
      <path id="Path_17702" data-name="Path 17702" d="M28.819,47.354q-.107-.343-.221-.684c-.442-1.34-.933-2.683-1.41-3.979-.149-.41-.3-.818-.448-1.228a2.191,2.191,0,0,0-2.316-1.6H10.79a2.309,2.309,0,0,0-2.609,1.824q-.335.934-.666,1.871c-.359,1.012-.73,2.06-1.1,3.086L6.285,47a3.779,3.779,0,0,0,.263,3.064A2.284,2.284,0,0,0,7.461,51c.013.006.029.009.042.017v1.911c0,2.181-.005,4.438,0,6.656a2.056,2.056,0,0,0,1.817,2.031,8.655,8.655,0,0,0,1.256.027c.175-.005.352-.01.535-.01h.742V56.207a.494.494,0,0,1,.494-.493l3.878-.011a.493.493,0,0,1,.493.493v5.35l.669.066.08.01a1.937,1.937,0,0,0,.213.015l.114.013H21.07c1.424,0,2.859,0,4.281-.005a2.14,2.14,0,0,0,2.161-2.193c.006-.992.005-2,0-2.972V51.045a2.088,2.088,0,0,0,.6-.485,3.336,3.336,0,0,0,.706-3.206" transform="translate(24.798 124.462)"/>
    </g>
  </g>
</svg>
