<svg xmlns="http://www.w3.org/2000/svg" xmlns:xlink="http://www.w3.org/1999/xlink" width="49" height="43" viewBox="0 0 49 43">
  <defs>
    <clipPath id="clip-path">
      <rect id="Rectangle_4869" data-name="Rectangle 4869" width="42" height="37.816" fill="none"/>
    </clipPath>
  </defs>
  <g id="Group_19580" data-name="Group 19580" transform="translate(-16 -613)">
    <g id="Group_14602" data-name="Group 14602" transform="translate(20 616)">
      <g id="Group_14602-2" data-name="Group 14602" transform="translate(0 0)" clip-path="url(#clip-path)">
        <path id="Path_15349" data-name="Path 15349" d="M31.034,5.727V2.463c0-2.022-1.562-3.04-3.347-2.125-1.849.948-3.665,1.965-5.473,2.991A51.628,51.628,0,0,1,11.243,8.458a26.6,26.6,0,0,1-3.084.365A20.422,20.422,0,0,0,5.145,8.9,6,6,0,0,0,.5,12.554,6.559,6.559,0,0,0,.023,15.62a6.148,6.148,0,0,0,6.106,5.474c1.587.02,4.942.293,5.193.351a32.745,32.745,0,0,1,9.254,3.844c2.449,1.436,4.844,2.966,7.251,4.475a1.783,1.783,0,0,0,1.719.175,2.131,2.131,0,0,0,1.487-2.224q.007-6.347,0-12.693,0-4.647,0-9.294" transform="translate(0 0)"/>
        <path id="Path_15350" data-name="Path 15350" d="M17.369,48.436c-.044-.307-.049-.565-.477-.558-1.159.019-2.319.007-3.557.007a4.478,4.478,0,0,0,0,.479,15.53,15.53,0,0,0,3.039,7.9,16.944,16.944,0,0,0,2.331,2.292c.6.517,1.191.257,1.393-.524.083-.324.1-.667.213-.981a2.811,2.811,0,0,0-.75-3.168,9.615,9.615,0,0,1-2.194-5.446" transform="translate(-6.075 -21.823)" fill="#fffe37"/>
        <path id="Path_15351" data-name="Path 15351" d="M18.638,58.956a1.739,1.739,0,0,1-1.144-.465,17.513,17.513,0,0,1-2.441-2.407,16.278,16.278,0,0,1-3.208-8.3,2.571,2.571,0,0,1-.011-.4l0-1,1.876,0c.846,0,1.665,0,2.484-.009a1.206,1.206,0,0,1,1.292,1.208l-.8.167.808-.114a8.892,8.892,0,0,0,1.98,5,3.631,3.631,0,0,1,.927,3.994,3.048,3.048,0,0,0-.1.442c-.028.16-.057.319-.1.477a1.79,1.79,0,0,1-1.133,1.338,1.469,1.469,0,0,1-.438.066M13.524,48.019a14.43,14.43,0,0,0,2.811,7.055,16.145,16.145,0,0,0,2.221,2.177l.028.023a.8.8,0,0,0,.044-.131c.029-.114.049-.231.069-.347a4.3,4.3,0,0,1,.163-.7,2.005,2.005,0,0,0-.574-2.343A10.353,10.353,0,0,1,15.9,48.015c-.725.008-1.448.007-2.193,0Z" transform="translate(-5.393 -21.14)"/>
        <path id="Path_15352" data-name="Path 15352" d="M32.609,10.53q0-1.632,0-3.264c0-2.022-1.562-3.04-3.347-2.125-1.85.948-3.665,1.965-5.473,2.991a51.641,51.641,0,0,1-10.971,5.128,26.594,26.594,0,0,1-3.085.365,20.413,20.413,0,0,0-3.013.081,6,6,0,0,0-4.65,3.651A6.566,6.566,0,0,0,1.6,20.423,6.148,6.148,0,0,0,7.7,25.9c1.587.02,4.942.293,5.193.351a32.748,32.748,0,0,1,9.254,3.844C24.6,31.528,27,33.058,29.4,34.567a1.783,1.783,0,0,0,1.719.175,2.131,2.131,0,0,0,1.487-2.224q.007-6.347,0-12.693,0-4.647,0-9.294" transform="translate(-0.718 -2.189)" fill="#fffe37"/>
        <path id="Path_15353" data-name="Path 15353" d="M29.733,35.019a2.7,2.7,0,0,1-1.449-.444l-1.335-.838c-1.922-1.209-3.91-2.459-5.9-3.624a31.883,31.883,0,0,0-9.024-3.752c-.316-.053-3.517-.312-5.021-.33A6.963,6.963,0,0,1,.1,19.807a7.331,7.331,0,0,1,.532-3.446,6.843,6.843,0,0,1,5.274-4.143,12.922,12.922,0,0,1,2.3-.1c.279,0,.557.009.834.007a26.326,26.326,0,0,0,2.9-.342A51.161,51.161,0,0,0,22.7,6.74c1.649-.935,3.57-2.016,5.5-3.007A3.132,3.132,0,0,1,31.311,3.7a3.247,3.247,0,0,1,1.43,2.881l0,15.919q0,4.668,0,9.334a2.934,2.934,0,0,1-2,2.982,2.7,2.7,0,0,1-1.006.2M7.506,13.744a8.46,8.46,0,0,0-1.34.086A5.153,5.153,0,0,0,2.14,16.988a5.724,5.724,0,0,0-.412,2.686,5.319,5.319,0,0,0,5.3,4.725c1.505.019,4.986.285,5.365.372a33.47,33.47,0,0,1,9.485,3.935c2.008,1.177,4.006,2.435,5.939,3.65l1.333.837a.97.97,0,0,0,.983.109,1.339,1.339,0,0,0,.973-1.467q0-4.667,0-9.332l0-15.918a1.673,1.673,0,0,0-.648-1.489,1.537,1.537,0,0,0-1.51.09c-1.9.976-3.808,2.047-5.442,2.975a52.335,52.335,0,0,1-11.146,5.2,25.529,25.529,0,0,1-3.3.4c-.293,0-.586,0-.879-.007-.228,0-.452-.008-.672-.008" transform="translate(-0.034 -1.507)"/>
        <line id="Line_236" data-name="Line 236" y1="3.408" x2="6.475" transform="translate(34.745 9.493)" fill="#fffe37"/>
        <rect id="Rectangle_4865" data-name="Rectangle 4865" width="7.317" height="1.632" transform="translate(34.365 12.179) rotate(-27.761)"/>
        <line id="Line_237" data-name="Line 237" x2="6.988" y2="2.169" transform="translate(34.488 21.014)" fill="#fffe37"/>
        <rect id="Rectangle_4866" data-name="Rectangle 4866" width="1.633" height="7.317" transform="translate(34.246 21.794) rotate(-72.759)"/>
        <line id="Line_238" data-name="Line 238" x2="7.255" transform="translate(34.745 16.848)" fill="#fffe37"/>
        <rect id="Rectangle_4867" data-name="Rectangle 4867" width="7.256" height="1.633" transform="translate(34.744 16.032)"/>
        <line id="Line_239" data-name="Line 239" y2="12.862" transform="translate(10.848 11.197)" fill="#fffe37"/>
        <rect id="Rectangle_4868" data-name="Rectangle 4868" width="1.633" height="12.862" transform="translate(10.032 11.197)"/>
      </g>
    </g>
    <rect id="Rectangle_4870" data-name="Rectangle 4870" width="49" height="43" transform="translate(16 613)" fill="#fff" opacity="0"/>
  </g>
</svg>
