<svg xmlns="http://www.w3.org/2000/svg" xmlns:xlink="http://www.w3.org/1999/xlink" width="41.552" height="36.464" viewBox="0 0 41.552 36.464">
  <defs>
    <clipPath id="clip-path">
      <rect id="Rectangle_4905" data-name="Rectangle 4905" width="30.503" height="24.786" fill="none"/>
    </clipPath>
  </defs>
  <g id="Group_19560" data-name="Group 19560" transform="translate(-16.107 -613)">
    <rect id="Rectangle_4870" data-name="Rectangle 4870" width="41.552" height="36.464" transform="translate(16.107 613)" fill="#fff" opacity="0"/>
    <g id="Group_19561" data-name="Group 19561" transform="translate(21.107 619)">
      <g id="Group_14694" data-name="Group 14694" clip-path="url(#clip-path)">
        <path id="Path_15537" data-name="Path 15537" d="M21.437,10.718A10.718,10.718,0,1,1,10.719,0,10.718,10.718,0,0,1,21.437,10.718"/>
        <line id="Line_244" data-name="Line 244" x2="7.165" y2="7.165" transform="translate(7.136 7.136)"/>
        <line id="Line_245" data-name="Line 245" y1="7.165" x2="7.165" transform="translate(7.136 7.136)"/>
        <path id="Path_15538" data-name="Path 15538" d="M24.454,17.622A10.718,10.718,0,1,1,13.736,6.9,10.718,10.718,0,0,1,24.454,17.622" transform="translate(-1.738 -3.978)" fill="#fffe37"/>
        <path id="Path_15539" data-name="Path 15539" d="M13.159,28.188A11.142,11.142,0,1,1,24.3,17.046,11.155,11.155,0,0,1,13.159,28.188m0-21.437A10.294,10.294,0,1,0,23.453,17.046,10.306,10.306,0,0,0,13.159,6.752" transform="translate(-1.162 -3.402)"/>
        <line id="Line_246" data-name="Line 246" x2="7.165" y2="7.165" transform="translate(8.414 10.062)" fill="#fffe37"/>
        <rect id="Rectangle_4902" data-name="Rectangle 4902" width="1.271" height="10.133" transform="translate(7.965 10.511) rotate(-45)"/>
        <line id="Line_247" data-name="Line 247" y1="7.165" x2="7.165" transform="translate(8.414 10.062)" fill="#fffe37"/>
        <rect id="Rectangle_4903" data-name="Rectangle 4903" width="10.133" height="1.271" transform="translate(7.965 16.777) rotate(-45)"/>
        <path id="Path_15540" data-name="Path 15540" d="M54.854,9.323a6.3,6.3,0,1,1-6.3-6.3,6.3,6.3,0,0,1,6.3,6.3" transform="translate(-24.352 -1.744)"/>
        <path id="Path_15541" data-name="Path 15541" d="M52.558,14.123a1.1,1.1,0,1,1-.23-1.533,1.1,1.1,0,0,1,.23,1.533" transform="translate(-29.144 -7.131)" fill="#fff"/>
        <path id="Path_15542" data-name="Path 15542" d="M60.461,19.961a1.1,1.1,0,1,1-.23-1.533,1.1,1.1,0,0,1,.23,1.533" transform="translate(-33.698 -10.495)" fill="#fff"/>
        <rect id="Rectangle_4904" data-name="Rectangle 4904" width="5.911" height="1.148" transform="matrix(0.594, -0.804, 0.804, 0.594, 21.989, 9.614)" fill="#fff"/>
      </g>
    </g>
  </g>
</svg>
