<svg xmlns="http://www.w3.org/2000/svg" xmlns:xlink="http://www.w3.org/1999/xlink" width="41.552" height="36.464" viewBox="0 0 41.552 36.464">
  <defs>
    <clipPath id="clip-path">
      <rect id="Rectangle_4871" data-name="Rectangle 4871" width="28.898" height="31.703" fill="none"/>
    </clipPath>
  </defs>
  <g id="Group_19556" data-name="Group 19556" transform="translate(-16 -613)">
    <rect id="Rectangle_4870" data-name="Rectangle 4870" width="41.552" height="36.464" transform="translate(16 613)" fill="#fff" opacity="0"/>
    <g id="Group_14606" data-name="Group 14606" transform="translate(21.936 615.544)">
      <g id="Group_14605" data-name="Group 14605" transform="translate(0 0)" clip-path="url(#clip-path)">
        <path id="Path_15354" data-name="Path 15354" d="M32.114,27.477a40.474,40.474,0,0,0-6.484-9.734,1.632,1.632,0,0,0-.954-.432,2.853,2.853,0,0,0-.3-.034c-1.176-.063-2.358-.022-3.537-.021s-2.359.008-3.538,0a1.594,1.594,0,0,0-1.394.677c-1.073,1.434-2.219,2.816-3.252,4.278a21.908,21.908,0,0,0-4.012,8.419A5.764,5.764,0,0,0,9.582,35.4a6.377,6.377,0,0,0,2.248,1.794,11.643,11.643,0,0,0,2.509.923,30.73,30.73,0,0,0,11.243.364,12.189,12.189,0,0,0,4.933-1.612,5.34,5.34,0,0,0,2.69-4.822,11.5,11.5,0,0,0-1.091-4.571" transform="translate(-4.307 -8.742)"/>
        <path id="Path_15355" data-name="Path 15355" d="M31.5,28.693a5.807,5.807,0,0,1,1.359.17,3.151,3.151,0,0,1,1.237.595l-1.165,1.419a1.8,1.8,0,0,0-.667-.37,3.309,3.309,0,0,0-.765-.14V32.3l1.165.34a2.677,2.677,0,0,1,1.28.794,2.062,2.062,0,0,1,.48,1.4,2.607,2.607,0,0,1-.231,1.128,2.451,2.451,0,0,1-.631.825,3.031,3.031,0,0,1-.935.533,4.72,4.72,0,0,1-1.128.255v.849h-.8v-.849a6,6,0,0,1-1.6-.218,3.417,3.417,0,0,1-1.4-.765l1.286-1.444a1.743,1.743,0,0,0,.765.553,3.514,3.514,0,0,0,.947.2V33.85l-.886-.267a3.121,3.121,0,0,1-1.4-.819,2.077,2.077,0,0,1-.479-1.45,2.275,2.275,0,0,1,.23-1.032,2.5,2.5,0,0,1,.613-.788,3.238,3.238,0,0,1,.885-.534,3.876,3.876,0,0,1,1.038-.267v-.849h.8Zm-.8,1.71a1.7,1.7,0,0,0-.606.255.64.64,0,0,0-.267.57.76.76,0,0,0,.109.437.879.879,0,0,0,.255.249,1.028,1.028,0,0,0,.291.128c.1.024.17.044.218.061Zm.8,5.472a2.626,2.626,0,0,0,.37-.1,1.263,1.263,0,0,0,.334-.176.909.909,0,0,0,.236-.261.683.683,0,0,0,.091-.358.728.728,0,0,0-.067-.327.689.689,0,0,0-.176-.224,1.151,1.151,0,0,0-.255-.158q-.146-.067-.3-.127l-.231-.085Z" transform="translate(-14.047 -14.117)" fill="#1d1d1b"/>
        <path id="Path_15356" data-name="Path 15356" d="M25.115,29.257a40.474,40.474,0,0,0-6.484-9.734,1.632,1.632,0,0,0-.954-.432,2.853,2.853,0,0,0-.3-.034c-1.176-.063-2.358-.022-3.537-.021s-2.359.008-3.538,0A1.594,1.594,0,0,0,8.9,19.71c-1.073,1.434-2.219,2.816-3.252,4.278A21.908,21.908,0,0,0,1.64,32.407a5.764,5.764,0,0,0,.943,4.774,6.377,6.377,0,0,0,2.248,1.794A11.643,11.643,0,0,0,7.34,39.9a30.73,30.73,0,0,0,11.243.364,12.189,12.189,0,0,0,4.933-1.612,5.34,5.34,0,0,0,2.69-4.822,11.5,11.5,0,0,0-1.091-4.571" transform="translate(-0.759 -9.644)" fill="#fffe37"/>
        <path id="Path_15357" data-name="Path 15357" d="M12.927,40.586a28.215,28.215,0,0,1-6.515-.73,12.255,12.255,0,0,1-2.671-.982,7.118,7.118,0,0,1-2.5-2A6.523,6.523,0,0,1,.156,31.506,22.753,22.753,0,0,1,4.29,22.8c.638-.9,1.324-1.784,1.988-2.635.429-.551.858-1.1,1.276-1.659a2.288,2.288,0,0,1,1.993-.973c.845.008,1.692.006,2.539,0h.992c.325,0,.652,0,.978-.007.849-.009,1.726-.018,2.6.029a3.513,3.513,0,0,1,.385.043,2.318,2.318,0,0,1,1.4.686,40.619,40.619,0,0,1,6.6,9.916,12.136,12.136,0,0,1,1.152,4.863,6.068,6.068,0,0,1-3.037,5.452,12.8,12.8,0,0,1-5.227,1.718,37.454,37.454,0,0,1-5,.352M9.517,19.012a.851.851,0,0,0-.778.38c-.424.566-.859,1.125-1.294,1.683-.653.838-1.329,1.7-1.947,2.579a21.413,21.413,0,0,0-3.89,8.133,5.027,5.027,0,0,0,.8,4.182A5.655,5.655,0,0,0,4.4,37.552a10.8,10.8,0,0,0,2.349.865,29.931,29.931,0,0,0,10.975.352,11.387,11.387,0,0,0,4.64-1.507,4.614,4.614,0,0,0,2.342-4.193,10.726,10.726,0,0,0-1.03-4.28,39.308,39.308,0,0,0-6.372-9.553,1.133,1.133,0,0,0-.507-.177,1.867,1.867,0,0,0-.221-.026c-.827-.044-1.681-.035-2.506-.027-.331,0-.662.007-.992.007h-.99c-.852,0-1.7,0-2.555,0Z" transform="translate(0 -8.883)"/>
        <path id="Path_15358" data-name="Path 15358" d="M25.245,1.416a7.79,7.79,0,0,1-3.18,1.024A5.232,5.232,0,0,1,18.191,1,4.561,4.561,0,0,0,13.509.351c-.512.171-.592.421-.355.894.893,1.791,1.764,3.592,2.633,5.395a1.241,1.241,0,0,0,1.234.766c.943-.009,1.886,0,2.829,0,.872,0,1.745-.018,2.616.005a1.6,1.6,0,0,0,.9-.2,1.553,1.553,0,0,0,.6-.733c.649-1.463,1.353-2.9,2.008-4.362a5.12,5.12,0,0,0,.228-.97,4.606,4.606,0,0,0-.951.276" transform="translate(-6.605 0)"/>
        <path id="Path_15359" data-name="Path 15359" d="M24.5,30.473a5.806,5.806,0,0,1,1.359.169,3.165,3.165,0,0,1,1.237.595l-1.165,1.42a1.811,1.811,0,0,0-.667-.37,3.335,3.335,0,0,0-.765-.14v1.929l1.165.34a2.674,2.674,0,0,1,1.28.795,2.061,2.061,0,0,1,.48,1.4,2.605,2.605,0,0,1-.231,1.128,2.441,2.441,0,0,1-.631.825,3.032,3.032,0,0,1-.935.534,4.719,4.719,0,0,1-1.128.254V40.2h-.8v-.849a6,6,0,0,1-1.6-.218,3.423,3.423,0,0,1-1.4-.765l1.286-1.444a1.738,1.738,0,0,0,.765.552,3.5,3.5,0,0,0,.947.2V35.63l-.886-.267a3.126,3.126,0,0,1-1.4-.819,2.078,2.078,0,0,1-.479-1.45,2.273,2.273,0,0,1,.23-1.031,2.5,2.5,0,0,1,.613-.788,3.212,3.212,0,0,1,.885-.533,3.877,3.877,0,0,1,1.038-.267v-.849h.8Zm-.8,1.71a1.694,1.694,0,0,0-.606.255.641.641,0,0,0-.267.57.761.761,0,0,0,.109.437.891.891,0,0,0,.255.249,1.013,1.013,0,0,0,.291.127c.1.024.17.044.218.061Zm.8,5.472a2.7,2.7,0,0,0,.37-.1,1.264,1.264,0,0,0,.334-.176.9.9,0,0,0,.236-.261.68.68,0,0,0,.091-.357.727.727,0,0,0-.067-.327.691.691,0,0,0-.176-.225,1.132,1.132,0,0,0-.255-.158c-.1-.044-.2-.087-.3-.128l-.231-.084Z" transform="translate(-10.499 -15.02)"/>
      </g>
    </g>
  </g>
</svg>
