<svg xmlns="http://www.w3.org/2000/svg" xmlns:xlink="http://www.w3.org/1999/xlink" width="161" height="39.674" viewBox="0 0 161 39.674">
  <defs>
    <clipPath id="clip-path">
      <path id="Rectangle_5321" data-name="Rectangle 5321" d="M19.837,0h0A19.837,19.837,0,0,1,39.674,19.837v0A19.837,19.837,0,0,1,19.837,39.674h0A19.836,19.836,0,0,1,0,19.838v0A19.837,19.837,0,0,1,19.837,0Z" fill="none"/>
    </clipPath>
  </defs>
  <g id="Group_19225" data-name="Group 19225" transform="translate(-8.192 0)">
    <path id="Path_17385" data-name="Path 17385" d="M121.025,38h-2.847V30.758l-3.22,5.285h-.321l-3.22-5.285V38H108.57V25.545h2.847l3.38,5.533,3.381-5.533h2.847Z" transform="translate(-52.576 -13.003)" fill="#231f20"/>
    <g id="Group_15987" data-name="Group 15987" transform="translate(8.192 0)">
      <g id="Group_19219" data-name="Group 19219">
        <path id="Path_17386" data-name="Path 17386" d="M149.666,32.534v8.9H147v-.837a3.342,3.342,0,0,1-2.651,1.085,4.467,4.467,0,0,1-4.253-4.7,4.467,4.467,0,0,1,4.253-4.7A3.342,3.342,0,0,1,147,33.371v-.837ZM147,36.983a2.118,2.118,0,1,0-2.117,2.171A2.031,2.031,0,0,0,147,36.983" transform="translate(-76.815 -16.435)" fill="#231f20"/>
        <path id="Path_17387" data-name="Path 17387" d="M175.139,32.535v8.451c0,2.989-2.331,4.252-4.7,4.252a4.55,4.55,0,0,1-4.217-2.153l2.278-1.317a2.032,2.032,0,0,0,2.028,1.121,1.773,1.773,0,0,0,2.01-1.9v-.818a3.161,3.161,0,0,1-2.6,1.156,4.521,4.521,0,0,1,0-9.038,3.16,3.16,0,0,1,2.6,1.156v-.907Zm-2.6,4.27a2.155,2.155,0,1,0-2.153,2.064,2.014,2.014,0,0,0,2.153-2.064" transform="translate(-89.782 -16.435)" fill="#231f20"/>
        <path id="Path_17388" data-name="Path 17388" d="M191.4,26.276a1.6,1.6,0,1,1,1.6,1.6,1.617,1.617,0,0,1-1.6-1.6m.267,2.384h2.669v8.9h-2.669Z" transform="translate(-102.933 -12.56)" fill="#231f20"/>
        <path id="Path_17389" data-name="Path 17389" d="M203.36,36.983a4.705,4.705,0,0,1,8.736-2.419l-2.331,1.352a1.842,1.842,0,0,0-1.726-1,2.064,2.064,0,0,0,0,4.128,1.824,1.824,0,0,0,1.726-1l2.331,1.334a4.54,4.54,0,0,1-4.021,2.295,4.609,4.609,0,0,1-4.715-4.7" transform="translate(-109.02 -16.435)" fill="#231f20"/>
        <path id="Path_17390" data-name="Path 17390" d="M225.318,34.912l2.455-1.423a2.609,2.609,0,0,0,2.616,1.725c1.352,0,1.69-.534,1.69-1.014,0-.765-.711-1.068-2.58-1.584-1.85-.516-3.666-1.405-3.666-3.79a3.9,3.9,0,0,1,4.181-3.789,4.831,4.831,0,0,1,4.555,2.811l-2.4,1.406a2.183,2.183,0,0,0-2.153-1.441c-.89,0-1.334.444-1.334.943,0,.569.3.96,2.242,1.548,1.886.57,4,1.228,4,3.861,0,2.4-1.922,3.825-4.626,3.825-2.615,0-4.288-1.246-4.982-3.078" transform="translate(-120.197 -12.745)" fill="#231f20"/>
        <path id="Path_17391" data-name="Path 17391" d="M259.041,32.537V38h-2.669V32.929a1.467,1.467,0,0,0-1.548-1.619c-.979,0-1.655.569-1.655,1.832V38H250.5V25.545h2.669V29.94a3.043,3.043,0,0,1,2.544-1.085c1.8,0,3.327,1.28,3.327,3.683" transform="translate(-133.016 -13.003)" fill="#231f20"/>
        <path id="Path_17392" data-name="Path 17392" d="M283.19,32.534v8.9h-2.669v-.837a3.341,3.341,0,0,1-2.651,1.085,4.467,4.467,0,0,1-4.253-4.7,4.467,4.467,0,0,1,4.253-4.7,3.341,3.341,0,0,1,2.651,1.085v-.837Zm-2.669,4.448a2.118,2.118,0,1,0-2.117,2.171,2.031,2.031,0,0,0,2.117-2.171" transform="translate(-144.784 -16.435)" fill="#231f20"/>
        <path id="Path_17393" data-name="Path 17393" d="M305.514,38l-2.847-3.932V38H300V25.545h2.669V33l2.669-3.9h3.113l-3.238,4.448L308.538,38Z" transform="translate(-158.212 -13.003)" fill="#231f20"/>
        <path id="Path_17394" data-name="Path 17394" d="M325.253,39.3a2.322,2.322,0,0,0,1.708-.677l2.135,1.228a4.515,4.515,0,0,1-3.879,1.832,4.7,4.7,0,1,1-.2-9.394,4.491,4.491,0,0,1,4.519,4.7,5.169,5.169,0,0,1-.107,1.068h-6.316a2.025,2.025,0,0,0,2.135,1.246m1.637-3.238a2,2,0,0,0-3.826,0Z" transform="translate(-168.541 -16.434)" fill="#231f20"/>
        <path id="Path_17395" data-name="Path 17395" d="M40.186,39.674H21.9a10.7,10.7,0,0,1-10.7-10.7V10.7A10.7,10.7,0,0,1,21.9,0H40.186a10.7,10.7,0,0,1,10.7,10.7V28.978a10.7,10.7,0,0,1-10.7,10.7" transform="translate(-11.208)" fill="#ffff04"/>
        <path id="Path_17396" data-name="Path 17396" d="M40.249,39.674h-18.4A10.635,10.635,0,0,1,11.209,29.04v-18.4A10.635,10.635,0,0,1,21.844,0h18.4A10.635,10.635,0,0,1,50.883,10.635v18.4A10.635,10.635,0,0,1,40.249,39.674" transform="translate(-11.209)" fill="#fffe37"/>
      </g>
    </g>
    <g id="Group_15989" data-name="Group 15989" transform="translate(8.193 0)">
      <g id="Group_15988" data-name="Group 15988" clip-path="url(#clip-path)">
        <path id="Path_17397" data-name="Path 17397" d="M49.149,19.9l-1.462,5.8a.28.28,0,0,0,.061.253l3.946,4.49a.279.279,0,0,1-.191.463l-5.964.4a.28.28,0,0,0-.221.136l-3.051,5.14a.279.279,0,0,1-.5-.039l-2.224-5.548a.279.279,0,0,0-.2-.168l-5.831-1.313a.28.28,0,0,1-.118-.488l4.59-3.83a.278.278,0,0,0,.1-.241L37.531,19a.28.28,0,0,1,.427-.263l5.06,3.181a.279.279,0,0,0,.259.02l5.49-2.365a.28.28,0,0,1,.381.325" transform="translate(-22.451 -9.518)" fill="#231f20"/>
        <path id="Path_17398" data-name="Path 17398" d="M30.244,14.758,29.879,16.2a.07.07,0,0,0,.015.063l.984,1.12a.07.07,0,0,1-.048.115l-1.488.1a.07.07,0,0,0-.055.034l-.761,1.282a.069.069,0,0,1-.124-.01l-.555-1.384a.072.072,0,0,0-.05-.042l-1.455-.327a.07.07,0,0,1-.029-.122l1.145-.955a.071.071,0,0,0,.025-.06l-.138-1.485a.07.07,0,0,1,.107-.065l1.262.793a.071.071,0,0,0,.065.005l1.369-.59a.07.07,0,0,1,.1.081" transform="translate(-18.885 -7.36)" fill="#231f20"/>
        <path id="Path_17399" data-name="Path 17399" d="M28.573,44.863l-.182.723a.036.036,0,0,0,.007.032l.492.56a.034.034,0,0,1-.024.057l-.744.05a.035.035,0,0,0-.028.017l-.38.641a.035.035,0,0,1-.062,0l-.277-.692a.033.033,0,0,0-.025-.021l-.728-.164a.034.034,0,0,1-.014-.06l.572-.478a.035.035,0,0,0,.012-.03l-.069-.742a.035.035,0,0,1,.054-.033l.631.4a.033.033,0,0,0,.032,0l.685-.3a.035.035,0,0,1,.048.041" transform="translate(-19.041 -22.761)" fill="#231f20"/>
        <path id="Path_17400" data-name="Path 17400" d="M43.472,60.473l-.506,2.007a.1.1,0,0,0,.021.087l1.366,1.555a.1.1,0,0,1-.066.16l-2.065.139a.1.1,0,0,0-.077.047l-1.056,1.78a.1.1,0,0,1-.173-.013l-.77-1.921a.1.1,0,0,0-.069-.058L38.058,63.8a.1.1,0,0,1-.041-.169l1.589-1.326a.1.1,0,0,0,.034-.083l-.191-2.061a.1.1,0,0,1,.148-.091l1.752,1.1a.1.1,0,0,0,.09.007l1.9-.819a.1.1,0,0,1,.132.112" transform="translate(-24.838 -30.571)" fill="#231f20"/>
        <path id="Path_17401" data-name="Path 17401" d="M64.528,49.269l-.257,1.018a.049.049,0,0,0,.011.044l.693.788a.049.049,0,0,1-.033.081l-1.047.07a.05.05,0,0,0-.039.024l-.536.9a.049.049,0,0,1-.088-.007l-.39-.974a.049.049,0,0,0-.035-.029l-1.024-.231a.049.049,0,0,1-.021-.085l.806-.672a.049.049,0,0,0,.017-.042l-.1-1.045a.049.049,0,0,1,.075-.046l.889.558a.049.049,0,0,0,.046,0l.964-.415a.049.049,0,0,1,.067.057" transform="translate(-36.933 -24.972)" fill="#231f20"/>
        <path id="Path_17402" data-name="Path 17402" d="M72.494,23.565l-.257,1.018a.049.049,0,0,0,.011.044l.693.788a.049.049,0,0,1-.033.081l-1.047.07a.05.05,0,0,0-.039.024l-.536.9a.049.049,0,0,1-.088-.007l-.39-.974a.049.049,0,0,0-.035-.029l-1.024-.231a.049.049,0,0,1-.021-.085l.806-.672a.049.049,0,0,0,.017-.042l-.1-1.045a.049.049,0,0,1,.075-.046l.889.558a.049.049,0,0,0,.046,0l.964-.415a.049.049,0,0,1,.067.057" transform="translate(-40.988 -11.888)" fill="#231f20"/>
        <path id="Path_17403" data-name="Path 17403" d="M53.135,14.205l-.128.509a.024.024,0,0,0,.005.022l.346.394a.025.025,0,0,1-.017.041l-.524.035a.024.024,0,0,0-.019.012l-.268.451a.024.024,0,0,1-.044,0l-.2-.487a.025.025,0,0,0-.017-.015l-.512-.115a.025.025,0,0,1-.01-.043l.4-.336a.024.024,0,0,0,.009-.021l-.049-.522a.024.024,0,0,1,.037-.023l.444.279a.025.025,0,0,0,.023,0l.482-.208a.025.025,0,0,1,.033.028" transform="translate(-31.842 -7.177)" fill="#231f20"/>
        <path id="Path_17404" data-name="Path 17404" d="M83.78,33.094l-.44,1.744a.082.082,0,0,0,.019.076l1.187,1.351a.084.084,0,0,1-.057.139l-1.794.12a.084.084,0,0,0-.067.041l-.918,1.546a.084.084,0,0,1-.15-.011l-.669-1.669a.084.084,0,0,0-.059-.051l-1.754-.4a.084.084,0,0,1-.036-.147l1.381-1.152a.085.085,0,0,0,.03-.072l-.166-1.791a.084.084,0,0,1,.129-.079l1.522.957a.085.085,0,0,0,.078.006L83.666,33a.084.084,0,0,1,.115.1" transform="translate(-45.722 -16.662)" fill="#231f20"/>
        <path id="Path_17405" data-name="Path 17405" d="M27.587,30.688l-.09.356a.017.017,0,0,0,0,.016l.243.276a.017.017,0,0,1-.012.028l-.367.025a.017.017,0,0,0-.014.008l-.188.316a.017.017,0,0,1-.031,0L27,31.37a.02.02,0,0,0-.012-.01l-.358-.081a.017.017,0,0,1-.007-.03l.282-.236A.017.017,0,0,0,26.907,31l-.034-.366a.017.017,0,0,1,.026-.016l.311.2a.017.017,0,0,0,.016,0l.337-.145a.017.017,0,0,1,.024.02" transform="translate(-19.05 -15.584)" fill="#231f20"/>
        <path id="Path_17406" data-name="Path 17406" d="M38.343,41.706l1.542-1.574L39.38,39.7l-1.542,1.574-5.246,5.9c.148.158.3.317.467.473Z" transform="translate(-22.094 -20.21)" fill="#231f20"/>
        <path id="Path_17407" data-name="Path 17407" d="M.712,85.147l5.421-6.1c-.163-.161-.316-.325-.457-.485L.207,84.716A.809.809,0,0,0,.282,85.87l.505.431a.809.809,0,0,1-.075-1.154" transform="translate(-5.503 -39.993)" fill="#231f20"/>
        <path id="Path_17408" data-name="Path 17408" d="M22.354,55.394c-.163-.155-.32-.315-.467-.473L11.561,66.53c.141.161.295.325.457.485Z" transform="translate(-11.388 -27.957)" fill="#231f20"/>
        <path id="Path_17409" data-name="Path 17409" d="M33.545,48.093a6.924,6.924,0,0,0,.972.783l6.409-7.824-.555-.473-1.542,1.574Z" transform="translate(-22.579 -20.656)" fill="#231f20"/>
        <path id="Path_17410" data-name="Path 17410" d="M2.612,87.456l5.575-6.805a5.01,5.01,0,0,1-1.53-1.1L1.236,85.65A.809.809,0,0,0,1.311,86.8l.819.7a.339.339,0,0,0,.482-.045" transform="translate(-6.027 -40.496)" fill="#231f20"/>
        <path id="Path_17411" data-name="Path 17411" d="M22.828,55.884,12.492,67.506a5.01,5.01,0,0,0,1.53,1.1L23.8,56.667a6.925,6.925,0,0,1-.972-.783" transform="translate(-11.862 -28.447)" fill="#231f20"/>
      </g>
    </g>
  </g>
</svg>
