<svg xmlns="http://www.w3.org/2000/svg" width="33.751" height="30.289" viewBox="0 0 33.751 30.289">
  <g id="Group_19638" data-name="Group 19638" transform="translate(-49 -419)">
    <g id="Group_5862" data-name="Group 5862" transform="translate(49 419)">
      <g id="Rectangle_14575" data-name="Rectangle 14575" fill="#fff" stroke="#707070" stroke-width="1" opacity="0">
        <rect width="33.751" height="30.289" stroke="none"/>
        <rect x="0.5" y="0.5" width="32.751" height="29.289" fill="none"/>
      </g>
    </g>
    <g id="Group_19599" data-name="Group 19599" transform="translate(-0.324 0.619)">
      <path id="Path_17731" data-name="Path 17731" d="M14.56,309.9a8.82,8.82,0,0,1-1.373-.108,9.016,9.016,0,0,1-7.02-5.177,9.746,9.746,0,0,1-.878-4.79,15.813,15.813,0,0,1,1.232-5.392c.133-.329.278-.652.418-.964.124-.274.252-.559.366-.837a1.141,1.141,0,0,1,1.364-.713,1.053,1.053,0,0,1,.824,1.023l.031.227a6.7,6.7,0,0,0,.621,2.4c.138.25.478.632.871.481a.766.766,0,0,0,.332-.229,6.8,6.8,0,0,0,.611-1.566,23.937,23.937,0,0,0,.457-5.538,1.183,1.183,0,0,1,.733-1.115,1.371,1.371,0,0,1,1.221.284,11.394,11.394,0,0,1,3.081,4.806c.12.357.208.717.292,1.065l.042.171c.045.182.131.277.257.285.181.01.213.012.279-.22.113-.388.217-.79.316-1.179s.2-.787.316-1.181a1.389,1.389,0,0,1,.646-.826,1.085,1.085,0,0,1,1.387.354,12.243,12.243,0,0,1,1.744,3.292,17,17,0,0,1,.976,5.9,8.893,8.893,0,0,1-1.8,5.821,9.178,9.178,0,0,1-4.342,3.2,8.78,8.78,0,0,1-3.006.535" transform="translate(52.045 134.824)"/>
      <path id="Path_17735" data-name="Path 17735" d="M14,304.168a6.354,6.354,0,0,0,.187.859,1.326,1.326,0,0,0,1.282.821,1.251,1.251,0,0,0,1.26-.837,2.571,2.571,0,0,0,.095-1.33,1.329,1.329,0,0,0-1.418-1.246,1.138,1.138,0,0,0-1.249.894c-.071.263-.1.536-.156.838" transform="translate(53.855 134.881)" fill="#fff"/>
      <path id="Path_17736" data-name="Path 17736" d="M12.62,301.131a1.511,1.511,0,0,0-1.349-1.72,1.28,1.28,0,0,0-1.372.826,2.994,2.994,0,0,0-.07,1.469,1.352,1.352,0,0,0,1.151,1.106,1.247,1.247,0,0,0,1.5-.9,5.552,5.552,0,0,0,.14-.778" transform="translate(52.592 133.559)" fill="#fff"/>
      <path id="Path_17737" data-name="Path 17737" d="M11.912,306.175h-.033a.935.935,0,0,1-.825-.456.914.914,0,0,1,.033-.928c.345-.58.7-1.161,1.051-1.723l.271-.439c.528-.857,1.091-1.768,1.656-2.672a1.5,1.5,0,0,1,.407-.451.883.883,0,0,1,1.147.1.917.917,0,0,1,.159,1.15c-.17.292-.349.58-.525.858-.066.105-.132.209-.2.315l-2.292,3.695a1,1,0,0,1-.853.548" transform="translate(52.665 134.555)" fill="#fff"/>
    </g>
  </g>
</svg>
