<svg xmlns="http://www.w3.org/2000/svg" width="33" height="29" viewBox="0 0 33 29">
  <g id="Group_5857" data-name="Group 5857" transform="translate(-50 -151.308)">
    <g id="Rectangle_14575" data-name="Rectangle 14575" transform="translate(50 151.308)" stroke="#707070" stroke-width="1" opacity="0">
      <rect width="33" height="29" stroke="none"/>
      <rect x="0.5" y="0.5" width="32" height="28" fill="none"/>
    </g>
    <g id="Group_19531" data-name="Group 19531" transform="translate(-43.819 -1789.516)">
      <path id="Path_17687" data-name="Path 17687" d="M25.323,6.789,17.211.571A2.739,2.739,0,0,0,13.938.514L5.8,6.311A2.758,2.758,0,0,0,4.645,8.552v12.1A2.756,2.756,0,0,0,7.4,23.4H23.764a2.756,2.756,0,0,0,2.753-2.753V9.205a3.062,3.062,0,0,0-1.193-2.416M11.594,16.528a1.37,1.37,0,0,1,1.368-1.368H18.2a1.368,1.368,0,1,1,0,2.737H12.963a1.37,1.37,0,0,1-1.368-1.368" transform="translate(95.174 1943.824)" fill="#1d1d1b"/>
    </g>
  </g>
</svg>
