<svg xmlns="http://www.w3.org/2000/svg" width="33.751" height="30.289" viewBox="0 0 33.751 30.289">
  <g id="Group_19222" data-name="Group 19222" transform="translate(-49 -419)">
    <g id="Group_5862" data-name="Group 5862" transform="translate(49 419)">
      <g id="Rectangle_14575" data-name="Rectangle 14575" fill="#fff" stroke="#707070" stroke-width="1" opacity="0">
        <rect width="33.751" height="30.289" stroke="none"/>
        <rect x="0.5" y="0.5" width="32.751" height="29.289" fill="none"/>
      </g>
    </g>
    <g id="Group_19536" data-name="Group 19536" transform="translate(-44.469 -1731.547)">
      <path id="Path_17690" data-name="Path 17690" d="M22.714,233.973H8.868a3.435,3.435,0,0,1-3.427-3.435v-1.745a3.426,3.426,0,0,1,.02-.359v-1.779q0-6.014,0-12.027a3.52,3.52,0,0,1,3.811-3.844l1.746,0c2.574,0,5.233-.008,7.853.022a2.56,2.56,0,0,1,1.631.676c1.63,1.577,3.306,3.256,4.979,4.988a2.448,2.448,0,0,1,.65,1.573c.03,1.676.027,3.376.022,5.02q0,.819,0,1.637v.336h0l0,1.516c0,.1,0,.213,0,.341,0,.057,0,.112-.006.165v3.48a3.435,3.435,0,0,1-3.427,3.435" transform="translate(95 1943.824)"/>
      <path id="Path_17693" data-name="Path 17693" d="M10.54,229.549h0a1.713,1.713,0,0,1-1.713-1.713v-6.73a1.713,1.713,0,0,1,3.426,0v6.73a1.713,1.713,0,0,1-1.713,1.713" transform="translate(97.338 1942.925)" fill="#fff"/>
      <path id="Path_17695" data-name="Path 17695" d="M15.68,229.549h0a1.713,1.713,0,0,1-1.713-1.713v-2.815a1.713,1.713,0,0,1,3.426,0v2.815a1.713,1.713,0,0,1-1.713,1.713" transform="translate(98.038 1943.161)" fill="#fff"/>
    </g>
  </g>
</svg>
