<svg xmlns="http://www.w3.org/2000/svg" width="16.313" height="12.941" viewBox="0 0 16.313 12.941">
  <g id="Icon_ionic-md-mail-unread" data-name="Icon ionic-md-mail-unread" transform="translate(-2.25 -4.5)">
    <path id="Path_17798" data-name="Path 17798" d="M30.375,6.75a2.25,2.25,0,1,1-2.25-2.25,2.25,2.25,0,0,1,2.25,2.25Z" transform="translate(-11.812 0)"/>
    <path id="Path_17799" data-name="Path 17799" d="M14.586,9.963l-4.461,2.974L3.938,8.814v-1.5l6.188,4.124,3.554-2.37a3.161,3.161,0,0,1-.042-3.442H3.751a1.5,1.5,0,0,0-1.5,1.5V16.5a1.5,1.5,0,0,0,1.5,1.5H16.5A1.5,1.5,0,0,0,18,16.5V9.988a3.165,3.165,0,0,1-3.417-.025Z" transform="translate(0 -0.562)"/>
  </g>
</svg>
