<svg xmlns="http://www.w3.org/2000/svg" width="33.751" height="30.289" viewBox="0 0 33.751 30.289">
  <g id="Group_19221" data-name="Group 19221" transform="translate(-49 -419.145)">
    <g id="Group_5862" data-name="Group 5862" transform="translate(49 419.145)">
      <g id="Rectangle_14575" data-name="Rectangle 14575" fill="#fff" stroke="#707070" stroke-width="1" opacity="0">
        <rect width="33.751" height="30.289" stroke="none"/>
        <rect x="0.5" y="0.5" width="32.751" height="29.289" fill="none"/>
      </g>
    </g>
    <g id="Group_19535" data-name="Group 19535" transform="translate(-43 -1692.324)">
      <path id="Path_17697" data-name="Path 17697" d="M23.531,172.461h0a2.03,2.03,0,0,0-.856.19l-.027.012a11.014,11.014,0,0,1-4.438,1.213,8.724,8.724,0,0,1-2.712-.608,12.107,12.107,0,0,0-3.978-.805,8.915,8.915,0,0,0-1.891.2,3.021,3.021,0,0,0-.255-1.02,3.009,3.009,0,1,0-4.781,3.444v17.831A1.709,1.709,0,0,0,6.3,194.626h.65a1.709,1.709,0,0,0,1.708-1.707v-5.831a10.586,10.586,0,0,1,3.918-.665,8.682,8.682,0,0,1,2.734.608,12.081,12.081,0,0,0,3.986.805,9.183,9.183,0,0,0,5.4-1.8,2.03,2.03,0,0,0,.871-1.668v-9.877a2.035,2.035,0,0,0-2.032-2.033" transform="translate(95.042 1943.824)"/>
      <path id="Path_17700" data-name="Path 17700" d="M15.894,178.642l.632,1.281a.715.715,0,0,0,.54.392l1.413.206a.718.718,0,0,1,.4,1.224l-1.023,1a.715.715,0,0,0-.207.635l.242,1.408a.718.718,0,0,1-1.042.756l-1.264-.665a.716.716,0,0,0-.667,0l-1.264.665a.718.718,0,0,1-1.042-.756l.242-1.408a.715.715,0,0,0-.207-.635l-1.023-1a.718.718,0,0,1,.4-1.224l1.413-.206a.715.715,0,0,0,.54-.392l.632-1.281a.718.718,0,0,1,1.288,0" transform="translate(94.789 1941.927)" fill="#fff"/>
    </g>
  </g>
</svg>
