<svg xmlns="http://www.w3.org/2000/svg" width="33.751" height="30.289" viewBox="0 0 33.751 30.289">
  <g id="Group_5863" data-name="Group 5863" transform="translate(-49 -419.145)">
    <g id="Group_5862" data-name="Group 5862" transform="translate(49 419.145)">
      <g id="Rectangle_14575" data-name="Rectangle 14575" fill="#fff" stroke="#707070" stroke-width="1" opacity="0">
        <rect width="33.751" height="30.289" stroke="none"/>
        <rect x="0.5" y="0.5" width="32.751" height="29.289" fill="none"/>
      </g>
    </g>
    <g id="Group_19534" data-name="Group 19534" transform="translate(-45.383 -1644.782)">
      <path id="Path_17727" data-name="Path 17727" d="M16.236,137.377A10.716,10.716,0,0,0,13,136.015a5.141,5.141,0,0,0,2.981-4.685,5.087,5.087,0,0,0-4.976-5.074,5.094,5.094,0,0,0-5.014,5.137,5.157,5.157,0,0,0,2.979,4.62A10.646,10.646,0,0,0,5.563,137.5a9.915,9.915,0,0,0-4.557,8.471H20.967a9.923,9.923,0,0,0-4.73-8.589" transform="translate(97 1943.883)"/>
      <path id="Path_17728" data-name="Path 17728" d="M17.662,134.446l4.331-6.481a.759.759,0,0,1,1.229,0l4.312,6.493a.758.758,0,0,1-.616,1.2l-8.643-.013a.758.758,0,0,1-.613-1.2" transform="translate(97.408 1943.486)"/>
    </g>
  </g>
</svg>
