<svg xmlns="http://www.w3.org/2000/svg" width="15.646" height="15.45" viewBox="0 0 15.646 15.45">
  <g id="Group_19624" data-name="Group 19624" transform="translate(-98.006 -2070.139)">
    <path id="Path_17727" data-name="Path 17727" d="M12.944,134.973a8.4,8.4,0,0,0-2.536-1.068,4.03,4.03,0,0,0,2.337-3.672,3.988,3.988,0,0,0-3.9-3.977,3.993,3.993,0,0,0-3.93,4.027A4.042,4.042,0,0,0,7.249,133.9a8.345,8.345,0,0,0-2.671,1.162,7.772,7.772,0,0,0-3.572,6.64H16.652a7.779,7.779,0,0,0-3.708-6.733" transform="translate(97 1943.883)"/>
  </g>
</svg>
