<svg xmlns="http://www.w3.org/2000/svg" width="33" height="29" viewBox="0 0 33 29">
  <g id="Group_5853" data-name="Group 5853" transform="translate(-54 -590)">
    <g id="Rectangle_14570" data-name="Rectangle 14570" transform="translate(54 590)" fill="#fff" stroke="#707070" stroke-width="1" opacity="0">
      <rect width="33" height="29" stroke="none"/>
      <rect x="0.5" y="0.5" width="32" height="28" fill="none"/>
    </g>
    <g id="Group_19539" data-name="Group 19539" transform="translate(35.049 -17.954)">
      <g id="Group_19541" data-name="Group 19541" transform="translate(24.653 612.653)">
        <g id="Group_19539-2" data-name="Group 19539" transform="translate(1)">
          <path id="Path_17489" data-name="Path 17489" d="M8.041,19.6l-.558-.134a9.9,9.9,0,0,1-2.874-1.194l-.487-.3.231-.523a1.667,1.667,0,0,0-2.2-2.2l-.523.232L1.328,15A9.845,9.845,0,0,1,.134,12.123L0,11.565l.535-.206a1.67,1.67,0,0,0,.958-.957A1.669,1.669,0,0,0,.536,8.247L0,8.04l.134-.558A10.053,10.053,0,0,1,1.32,4.606l.3-.5.528.239a1.656,1.656,0,0,0,1.348,0,1.667,1.667,0,0,0,.849-2.2l-.232-.523.487-.3A9.846,9.846,0,0,1,7.478.134L8.036,0l.206.536a1.67,1.67,0,0,0,.958.957,1.654,1.654,0,0,0,1.276-.032,1.656,1.656,0,0,0,.879-.925L11.56,0l.558.134a9.818,9.818,0,0,1,2.871,1.194l.486.3-.232.523a1.667,1.667,0,0,0,1.522,2.342,1.687,1.687,0,0,0,.679-.146l.523-.232.3.487a9.85,9.85,0,0,1,1.194,2.875l.134.558-.536.206a1.672,1.672,0,0,0,0,3.118l.532.208-.134.555A9.9,9.9,0,0,1,18.263,15l-.3.486-.522-.23a1.667,1.667,0,0,0-2.2,2.2l.23.522-.486.3a9.85,9.85,0,0,1-2.875,1.194l-.558.134-.206-.535a1.662,1.662,0,0,0-3.1,0ZM9.8,16.691a2.972,2.972,0,0,1,2.5,1.369,8.541,8.541,0,0,0,1.559-.648,2.978,2.978,0,0,1,3.54-3.541,8.59,8.59,0,0,0,.649-1.561A2.969,2.969,0,0,1,16.68,9.8h0A3,3,0,0,1,18.055,7.29a8.526,8.526,0,0,0-.647-1.558,3.015,3.015,0,0,1-.64.071A2.979,2.979,0,0,1,13.86,2.188a8.5,8.5,0,0,0-1.553-.646,2.957,2.957,0,0,1-1.3,1.116,2.959,2.959,0,0,1-2.278.058A2.983,2.983,0,0,1,7.29,1.542a8.533,8.533,0,0,0-1.558.647A2.978,2.978,0,0,1,2.826,5.8a3.124,3.124,0,0,1-.641-.069,8.738,8.738,0,0,0-.643,1.559,2.957,2.957,0,0,1,1.116,1.3,2.958,2.958,0,0,1,.058,2.278,2.983,2.983,0,0,1-1.174,1.439,8.546,8.546,0,0,0,.647,1.558,2.977,2.977,0,0,1,3.547,3.543,8.574,8.574,0,0,0,1.559.648A2.984,2.984,0,0,1,9.8,16.691m.041-2.481h0a4.416,4.416,0,1,1,4.416-4.416,4.421,4.421,0,0,1-4.416,4.416m0-7.522a3.106,3.106,0,1,0,0,6.212h0a3.106,3.106,0,0,0,0-6.212"/>
          <path id="Path_17488" data-name="Path 17488" d="M22.45,14.91a2.322,2.322,0,0,1,1.49-2.167,9.209,9.209,0,0,0-1.115-2.684,2.355,2.355,0,0,1-.945.2A2.323,2.323,0,0,1,19.76,7a9.18,9.18,0,0,0-2.679-1.115,2.322,2.322,0,0,1-4.335,0A9.213,9.213,0,0,0,10.061,7,2.322,2.322,0,0,1,7.94,10.261a2.279,2.279,0,0,1-.945-.2,9.414,9.414,0,0,0-1.109,2.689,2.322,2.322,0,0,1,0,4.335A9.211,9.211,0,0,0,7,19.767a2.322,2.322,0,0,1,3.066,3.062,9.264,9.264,0,0,0,2.684,1.115,2.318,2.318,0,0,1,4.325,0,9.208,9.208,0,0,0,2.684-1.115,2.322,2.322,0,0,1,3.06-3.062,9.267,9.267,0,0,0,1.115-2.684A2.334,2.334,0,0,1,22.45,14.91m-7.494,3.756a3.761,3.761,0,1,1,3.761-3.761,3.761,3.761,0,0,1-3.761,3.761Z" transform="translate(-5.115 -5.112)"/>
        </g>
      </g>
    </g>
  </g>
</svg>
