<svg id="Group_19576" data-name="Group 19576" xmlns="http://www.w3.org/2000/svg" xmlns:xlink="http://www.w3.org/1999/xlink" width="161.177" height="171.464" viewBox="0 0 161.177 171.464">
  <defs>
    <clipPath id="clip-path">
      <rect id="Rectangle_14798" data-name="Rectangle 14798" width="161.177" height="171.464" fill="none"/>
    </clipPath>
  </defs>
  <g id="Group_19575" data-name="Group 19575" clip-path="url(#clip-path)">
    <path id="Path_17759" data-name="Path 17759" d="M126.338,115.731a75.467,75.467,0,0,0,.5-73.959L60.888,78.308Z" transform="translate(21.814 14.966)" fill="#fbfbfb"/>
    <path id="Path_17760" data-name="Path 17760" d="M126.834,52.018A75.358,75.358,0,0,0,60.887,13.172V88.554Z" transform="translate(21.814 4.719)" fill="#fffe37"/>
    <path id="Path_17761" data-name="Path 17761" d="M60.388,89.885V12.672h.679a76.162,76.162,0,0,1,66.54,39.2l.329.594Zm1.358-75.852V87.579l64.341-35.645a74.809,74.809,0,0,0-64.341-37.9" transform="translate(21.635 4.54)" fill="#1d1d1b"/>
    <path id="Path_17762" data-name="Path 17762" d="M60.888,144.053a75.351,75.351,0,0,0,65.45-37.958L60.888,68.67Z" transform="translate(21.814 24.602)" fill="#fffe37"/>
    <path id="Path_17763" data-name="Path 17763" d="M61.067,145.04h-.679V67.808l67.055,38.343-.338.589a76.3,76.3,0,0,1-66.038,38.3m.679-74.891v73.53a74.951,74.951,0,0,0,63.84-37.026Z" transform="translate(21.635 24.293)" fill="#1d1d1b"/>
    <path id="Path_17764" data-name="Path 17764" d="M13.225,41.118a72.358,72.358,0,0,0-.522,73.959L81.932,78.541Z" transform="translate(1.003 14.731)" fill="#fffe37"/>
    <path id="Path_17765" data-name="Path 17765" d="M12.624,116.22l-.327-.562a73.03,73.03,0,0,1,.526-74.65l.335-.558L83.546,78.79Zm1.03-73.954a71.664,71.664,0,0,0-.509,72.143L80.673,78.771Z" transform="translate(0.823 14.492)"/>
    <path id="Path_17766" data-name="Path 17766" d="M10.091,105.206c13.5,23.165,39.44,38.846,69.227,38.846V68.67Z" transform="translate(3.615 24.602)" fill="#fbfbfb"/>
    <path id="Path_17767" data-name="Path 17767" d="M79.181,13.172c-29.405,0-55.064,15.279-68.707,37.958L79.181,88.554Z" transform="translate(3.752 4.719)" fill="#fff"/>
    <path id="Path_17768" data-name="Path 17768" d="M62.088,69.267H59.508L62.088,65.1Z" transform="translate(21.32 23.323)"/>
    <path id="Path_17769" data-name="Path 17769" d="M61.919,68.954H57.235L62.9,65.972v1.395Z" transform="translate(20.505 23.635)"/>
    <path id="Path_17770" data-name="Path 17770" d="M69.435,69.185H62.876L61.17,66.373l1.982-1.045Zm-5.8-1.358h.989L63.1,66.89l-.022.011Z" transform="translate(21.915 23.405)"/>
    <path id="Path_17771" data-name="Path 17771" d="M64.737,69.077h-4.33V67.105l.2-.322.235-.2,1.806-.951Zm-2.972-1.358h.56l-.177-.292-.383.2Z" transform="translate(21.642 23.513)"/>
    <path id="Path_17772" data-name="Path 17772" d="M60.407,69.749V66.932l.363-.269L62.96,65.5Z" transform="translate(21.642 23.468)"/>
    <path id="Path_17773" data-name="Path 17773" d="M63.324,67.74l-2.916-1.8V62.9Z" transform="translate(21.642 22.535)"/>
    <path id="Path_17774" data-name="Path 17774" d="M60.478,68.906l-.071-1.089V63.961l1.384.854.987,1.63-1.141,1.849Z" transform="translate(21.642 22.915)"/>
    <path id="Path_17775" data-name="Path 17775" d="M59.571,69.228l2.717-4.4,1.365,2.249Z" transform="translate(21.343 23.226)"/>
    <path id="Path_17776" data-name="Path 17776" d="M61.943,67.752l-.962-1.586.894-1.445,2.691,1.65Z" transform="translate(21.848 23.187)"/>
    <path id="Path_17777" data-name="Path 17777" d="M62.281,67.926l-2.718-4.478,3.98,2.439Z" transform="translate(21.339 22.731)"/>
    <path id="Path_17778" data-name="Path 17778" d="M80.589,167.951A80.847,80.847,0,0,1,23.618,144.8a78.028,78.028,0,0,1,0-111.855,81.688,81.688,0,0,1,113.944,0,78.031,78.031,0,0,1,0,111.855,80.853,80.853,0,0,1-56.973,23.146m0-154.347a77.069,77.069,0,0,0-54.31,22.06,74.227,74.227,0,0,0,0,106.427,77.885,77.885,0,0,0,108.621,0,74.227,74.227,0,0,0,0-106.427A77.069,77.069,0,0,0,80.589,13.6" transform="translate(0 3.512)"/>
    <path id="Path_17779" data-name="Path 17779" d="M83.355,73.527A19.337,19.337,0,1,1,64.017,54.189,19.338,19.338,0,0,1,83.355,73.527" transform="translate(16.008 19.414)" fill="#fff"/>
    <path id="Path_17780" data-name="Path 17780" d="M64.377,94.58a20.7,20.7,0,1,1,20.695-20.7,20.719,20.719,0,0,1-20.695,20.7m0-38.674A17.979,17.979,0,1,0,82.355,73.885,18,18,0,0,0,64.377,55.907" transform="translate(15.649 19.056)"/>
    <path id="Path_17781" data-name="Path 17781" d="M62.369,63.363l1.466,2.971a1.415,1.415,0,0,0,1.064.773l3.279.477a1.411,1.411,0,0,1,.782,2.407L66.586,72.3a1.412,1.412,0,0,0-.406,1.25l.561,3.265a1.413,1.413,0,0,1-2.05,1.489l-2.931-1.542a1.415,1.415,0,0,0-1.315,0l-2.932,1.542a1.412,1.412,0,0,1-2.048-1.489l.56-3.265a1.411,1.411,0,0,0-.4-1.25L53.247,69.99a1.411,1.411,0,0,1,.782-2.407l3.279-.477a1.41,1.41,0,0,0,1.062-.773l1.467-2.971a1.411,1.411,0,0,1,2.532,0" transform="translate(18.923 22.419)" fill="#2aa589"/>
    <path id="Path_17782" data-name="Path 17782" d="M65.53,79.329a2.082,2.082,0,0,1-.974-.243l-2.932-1.542a.736.736,0,0,0-.683,0l-2.931,1.542a2.093,2.093,0,0,1-3.036-2.2l.561-3.265a.728.728,0,0,0-.211-.648l-2.372-2.313a2.091,2.091,0,0,1,1.159-3.567l3.277-.475a.732.732,0,0,0,.553-.4l1.466-2.972a2.081,2.081,0,0,1,1.876-1.165h0a2.078,2.078,0,0,1,1.873,1.165l1.466,2.972a.732.732,0,0,0,.553.4l3.278.475a2.091,2.091,0,0,1,1.159,3.567L67.24,72.968a.731.731,0,0,0-.212.647l.562,3.267a2.1,2.1,0,0,1-2.06,2.448m-4.247-15.9a.719.719,0,0,0-.657.409l-1.466,2.971a2.092,2.092,0,0,1-1.576,1.144l-3.277.477a.733.733,0,0,0-.407,1.25L56.272,72a2.083,2.083,0,0,1,.6,1.851l-.558,3.264a.733.733,0,0,0,1.064.773l2.931-1.542a2.086,2.086,0,0,1,1.946,0l2.932,1.542a.733.733,0,0,0,1.062-.773l-.56-3.265a2.09,2.09,0,0,1,.6-1.851l2.373-2.312a.733.733,0,0,0-.407-1.25l-3.278-.477A2.092,2.092,0,0,1,63.4,66.813l-1.466-2.971a.717.717,0,0,0-.656-.409" transform="translate(18.744 22.239)"/>
    <path id="Path_17783" data-name="Path 17783" d="M62.521,11.564A1.362,1.362,0,1,1,61.159,10.2a1.363,1.363,0,0,1,1.362,1.362" transform="translate(21.424 3.655)" fill="#c3c3c3"/>
    <path id="Path_17784" data-name="Path 17784" d="M91.721,20.172a1.362,1.362,0,1,1-1.362-1.362,1.362,1.362,0,0,1,1.362,1.362" transform="translate(31.885 6.739)" fill="#fff"/>
    <path id="Path_17785" data-name="Path 17785" d="M111.738,41.22a1.362,1.362,0,1,1-1.308-1.413,1.361,1.361,0,0,1,1.308,1.413" transform="translate(39.057 14.261)" fill="#fff"/>
    <path id="Path_17786" data-name="Path 17786" d="M117.567,68.027a1.362,1.362,0,1,1-1.362-1.362,1.362,1.362,0,0,1,1.362,1.362" transform="translate(41.145 23.884)" fill="#c3c3c3"/>
    <path id="Path_17787" data-name="Path 17787" d="M111.517,95.122a1.362,1.362,0,1,1-1.364-1.362,1.363,1.363,0,0,1,1.364,1.362" transform="translate(38.977 33.591)" fill="#c3c3c3"/>
    <path id="Path_17788" data-name="Path 17788" d="M93.044,115.688a1.362,1.362,0,1,1-1.362-1.362,1.362,1.362,0,0,1,1.362,1.362" transform="translate(32.359 40.959)" fill="#fff"/>
    <path id="Path_17789" data-name="Path 17789" d="M62.126,125.593a1.362,1.362,0,1,1-1.362-1.362,1.362,1.362,0,0,1,1.362,1.362" transform="translate(21.282 44.508)" fill="#fff"/>
    <path id="Path_17790" data-name="Path 17790" d="M31.346,117.693a1.362,1.362,0,1,1-1.362-1.362,1.362,1.362,0,0,1,1.362,1.362" transform="translate(10.255 41.678)" fill="#fff"/>
    <path id="Path_17791" data-name="Path 17791" d="M9.977,95.257A1.362,1.362,0,1,1,8.615,93.9a1.362,1.362,0,0,1,1.362,1.362" transform="translate(2.599 33.64)" fill="#fff"/>
    <path id="Path_17792" data-name="Path 17792" d="M2.723,67.621a1.362,1.362,0,1,1-1.362-1.362,1.362,1.362,0,0,1,1.362,1.362" transform="translate(0 23.738)" fill="#fff"/>
    <path id="Path_17793" data-name="Path 17793" d="M13.478,35.5a1.362,1.362,0,1,1-1.362-1.362A1.362,1.362,0,0,1,13.478,35.5" transform="translate(3.853 12.229)" fill="#fff"/>
    <path id="Path_17794" data-name="Path 17794" d="M34.027,18.167a1.362,1.362,0,1,1-1.362-1.362,1.362,1.362,0,0,1,1.362,1.362" transform="translate(11.215 6.021)" fill="#fff"/>
    <path id="Path_17795" data-name="Path 17795" d="M111.839,3.318A13.748,13.748,0,0,0,92.451,4.793l-.014.015c-6.717,7.834-6.187,28.357-6.187,28.357s20.362-2.611,27.078-10.445a13.749,13.749,0,0,0-1.474-19.388l-.016-.014" transform="translate(30.897 0)"/>
    <path id="Path_17796" data-name="Path 17796" d="M97.306,13.264a3.062,3.062,0,1,1,4.318-.331,3.062,3.062,0,0,1-4.318.331" transform="translate(34.479 2.822)" fill="#fff"/>
  </g>
</svg>
