<svg xmlns="http://www.w3.org/2000/svg" width="11.745" height="13.05" viewBox="0 0 11.745 13.05">
  <path id="Icon_material-date-range" data-name="Icon material-date-range" d="M8.415,8.873H7.11v1.305H8.415Zm2.61,0H9.72v1.305h1.305Zm2.61,0H12.33v1.305h1.305ZM14.94,4.305h-.653V3H12.983V4.305H7.763V3H6.458V4.305H5.805a1.3,1.3,0,0,0-1.3,1.305L4.5,14.745A1.3,1.3,0,0,0,5.805,16.05H14.94a1.309,1.309,0,0,0,1.305-1.305V5.61A1.309,1.309,0,0,0,14.94,4.305Zm0,10.44H5.805V7.568H14.94Z" transform="translate(-4.5 -3)"/>
</svg>
