<svg xmlns="http://www.w3.org/2000/svg" xmlns:xlink="http://www.w3.org/1999/xlink" width="40.896" height="35.888" viewBox="0 0 40.896 35.888">
  <defs>
    <clipPath id="clip-path">
      <rect id="Rectangle_4881" data-name="Rectangle 4881" width="23.868" height="35.432" fill="none"/>
    </clipPath>
  </defs>
  <g id="Group_19551" data-name="Group 19551" transform="translate(-16 -614)">
    <rect id="Rectangle_4870" data-name="Rectangle 4870" width="40.896" height="35.888" transform="translate(16 614)" fill="#fff" opacity="0"/>
    <g id="Group_14624" data-name="Group 14624" transform="translate(24.619 614)">
      <g id="Group_14621" data-name="Group 14621" transform="translate(0 0)" clip-path="url(#clip-path)">
        <path id="Path_15383" data-name="Path 15383" d="M31.248,71.522H29.8c0-.018,0-.036,0-.054v-.89a1.89,1.89,0,0,0-1.89-1.89h-.34l-.092-.26a6.348,6.348,0,0,1-.332-2.656l.043-.486-2.3.265-2.3-.265.042.486a6.348,6.348,0,0,1-.332,2.656l-.091.26h-.34a1.89,1.89,0,0,0-1.89,1.89v.89c0,.018,0,.036,0,.054H18.533a1.013,1.013,0,0,0-1.013,1.013v2.644a1.013,1.013,0,0,0,1.013,1.013H31.248a1.013,1.013,0,0,0,1.013-1.013V72.535a1.013,1.013,0,0,0-1.013-1.013" transform="translate(-10.938 -40.76)"/>
        <path id="Path_15384" data-name="Path 15384" d="M23.823,26.751H15.81L17.5,36.716a5.732,5.732,0,0,0,5.651,4.775h1.159a5.979,5.979,0,0,0,5.906-5.047l1.529-9.693Z" transform="translate(-9.871 -16.702)"/>
        <path id="Path_15385" data-name="Path 15385" d="M5.283,29.592H1.67s.816,7.608,5.265,9.119" transform="translate(-1.043 -18.476)" fill="#fffe37"/>
        <path id="Path_15386" data-name="Path 15386" d="M5.711,38.308C.976,36.7.1,29.041.067,28.716L0,28.092H4.24v1.127H1.279c.3,1.79,1.45,6.887,4.794,8.023Z" transform="translate(0 -17.539)"/>
        <path id="Path_15387" data-name="Path 15387" d="M49.5,29.592h3.613S52.3,37.2,47.851,38.711" transform="translate(-29.875 -18.476)" fill="#fffe37"/>
        <path id="Path_15388" data-name="Path 15388" d="M47.731,38.308l-.363-1.067c3.35-1.138,4.492-6.233,4.794-8.023H49.2V28.092h4.24l-.067.624c-.035.325-.909,7.984-5.644,9.593" transform="translate(-29.574 -17.539)"/>
        <path id="Path_15389" data-name="Path 15389" d="M25.861,69.257H24.415c0-.018,0-.036,0-.054v-.89a1.89,1.89,0,0,0-1.89-1.89h-.34l-.092-.26a6.347,6.347,0,0,1-.332-2.656l.043-.486-2.3.265-2.3-.265.042.486a6.347,6.347,0,0,1-.332,2.656l-.091.26h-.34a1.89,1.89,0,0,0-1.89,1.89v.89c0,.018,0,.036,0,.054H13.146a1.013,1.013,0,0,0-1.013,1.013v2.644a1.013,1.013,0,0,0,1.013,1.013H25.861a1.013,1.013,0,0,0,1.013-1.013V70.27a1.013,1.013,0,0,0-1.013-1.013" transform="translate(-7.575 -39.346)" fill="#fffe37"/>
        <path id="Path_15390" data-name="Path 15390" d="M24.924,73.429H12.21a1.579,1.579,0,0,1-1.577-1.577V69.209a1.579,1.579,0,0,1,1.577-1.577h.88v-.381A2.457,2.457,0,0,1,15.482,64.8a5.824,5.824,0,0,0,.264-2.3l-.1-1.174,2.924.337,2.924-.337-.1,1.174a5.825,5.825,0,0,0,.263,2.3,2.456,2.456,0,0,1,2.392,2.452v.381h.881A1.578,1.578,0,0,1,26.5,69.209v2.643a1.578,1.578,0,0,1-1.576,1.577M12.21,68.759a.45.45,0,0,0-.45.45v2.643a.45.45,0,0,0,.45.45H24.924a.45.45,0,0,0,.449-.45V69.209a.45.45,0,0,0-.449-.45H22.9l.018-.618v-.89a1.328,1.328,0,0,0-1.326-1.326h-.74l-.224-.637a6.957,6.957,0,0,1-.377-2.69l-1.684.194L16.883,62.6a6.962,6.962,0,0,1-.377,2.69l-.224.637h-.74a1.328,1.328,0,0,0-1.326,1.326l.019,1.508Z" transform="translate(-6.639 -38.285)"/>
        <path id="Path_15391" data-name="Path 15391" d="M18.436,24.487H10.423l1.686,9.965a5.732,5.732,0,0,0,5.651,4.775H18.92a5.979,5.979,0,0,0,5.906-5.047l1.529-9.693Z" transform="translate(-6.508 -15.288)" fill="#fffe37"/>
        <path id="Path_15392" data-name="Path 15392" d="M17.811,38.855H16.652a6.278,6.278,0,0,1-6.207-5.245l-1.8-10.622H25.9L24.273,33.331a6.511,6.511,0,0,1-6.462,5.523M9.981,24.114l1.575,9.308a5.155,5.155,0,0,0,5.1,4.306h1.159a5.39,5.39,0,0,0,5.349-4.572l1.426-9.042Z" transform="translate(-5.399 -14.352)"/>
        <path id="Path_15393" data-name="Path 15393" d="M27.614.328l.622,1.26a.588.588,0,0,0,.443.321l1.39.2a.587.587,0,0,1,.325,1l-1.006.981a.588.588,0,0,0-.169.52L29.456,6a.587.587,0,0,1-.852.619L27.36,5.964a.588.588,0,0,0-.547,0l-1.243.654A.587.587,0,0,1,24.718,6l.237-1.385a.587.587,0,0,0-.169-.52L23.78,3.113a.587.587,0,0,1,.326-1l1.39-.2a.588.588,0,0,0,.442-.321L26.56.328a.588.588,0,0,1,1.054,0" transform="translate(-14.736 0)"/>
        <path id="Path_15394" data-name="Path 15394" d="M8.008,8.117l.376.761a.356.356,0,0,0,.267.195l.84.122a.355.355,0,0,1,.2.606l-.608.593a.354.354,0,0,0-.1.314l.143.837a.355.355,0,0,1-.515.375l-.752-.4a.354.354,0,0,0-.33,0l-.752.4a.355.355,0,0,1-.515-.375l.144-.837a.354.354,0,0,0-.1-.314L5.691,9.8a.355.355,0,0,1,.2-.606l.84-.122A.356.356,0,0,0,7,8.879l.376-.761a.355.355,0,0,1,.637,0" transform="translate(-3.486 -4.945)"/>
        <path id="Path_15395" data-name="Path 15395" d="M52.788,10.086l.376.761a.356.356,0,0,0,.267.194l.84.122a.355.355,0,0,1,.2.606l-.608.592a.355.355,0,0,0-.1.314l.143.837a.355.355,0,0,1-.515.374l-.752-.395a.354.354,0,0,0-.33,0l-.752.395a.355.355,0,0,1-.515-.374l.143-.837a.355.355,0,0,0-.1-.314l-.608-.592a.355.355,0,0,1,.2-.606l.84-.122a.356.356,0,0,0,.267-.194l.376-.761a.355.355,0,0,1,.637,0" transform="translate(-31.444 -6.174)"/>
        <path id="Path_15396" data-name="Path 15396" d="M18.673,38.478s.12,5.265,3.652,6.6" transform="translate(-11.658 -24.024)" fill="#fffe37"/>
        <path id="Path_15397" data-name="Path 15397" d="M21.19,45.579c-3.843-1.448-4.011-6.88-4.016-7.11l1.127-.026c0,.049.157,4.9,3.287,6.082Z" transform="translate(-10.722 -24.002)"/>
      </g>
    </g>
  </g>
</svg>
